Coordinates
version=1
nRows=10
nColumns=33
inDegrees=yes

Units are S.I. units (second, meters, Newtons, ...)
Angles are in degrees.

endheader
time	ground_thorax_rot_x	ground_thorax_rot_y	ground_thorax_rot_z	ground_thorax_tx	ground_thorax_ty	ground_thorax_tz	clav_prot_r	clav_elev_r	scapula_abduction_r	scapula_elevation_r	scapula_upward_rot_r	scapula_winging_r	shoulder_elv_r	plane_of_elev_r	axial_rot_r	elbow_flexion_r	pro_sup_r	wrist_flex_r	wrist_dev_r	clav_prot_l	clav_elev_l	scapula_abduction_l	scapula_elevation_l	scapula_upward_rot_l	scapula_winging_l	shoulder_elv_l	plane_of_elev_l	axial_rot_l	elbow_flexion_l	pro_sup_l	wrist_flex_l	wrist_dev_l
     12.07000000	     36.74994167	     11.49141057	     14.74357608	    -82.14615639	    763.02219567	      7.95518395	     12.29598026	     37.55076271	     45.00000000	     35.81424669	    -12.21974438	   2067.56520751	   -842.12042058	    151.34992285	   -117.97532357	   1088.63599560	     27.05366103	     16.85471756	     10.82176065	      5.37359945	    -45.00000000	    -42.10954393	     45.00000000	    -31.15697527	  -2073.02605750	    259.50779999	    138.16335094	    157.02269858	   2526.76388010	     25.36679246	      8.81396176	    -18.26893084
     12.08000000	     36.73455188	     10.28947680	     12.41251959	    -80.48780546	    762.98785187	      8.13868859	     12.03787300	     37.60091053	     45.00000000	     35.22044405	     -8.97224609	   2067.30713855	   -842.36399461	    151.65918343	   -117.44828619	   1088.36200738	     27.80317752	     16.96839855	     11.12643498	      5.34106871	    -45.00000000	    -45.00000000	     45.00000000	    -26.82197367	  -2072.44718845	    258.97676857	    138.19667448	    158.41154810	   2526.61330472	     25.90804193	      8.73044184	    -18.28680385
     12.09000000	     36.54542897	     10.65735786	     13.08873078	    -78.97969904	    763.02599393	      8.35700353	     11.35744273	     36.99837233	     45.00000000	     34.85068706	     -9.29216127	   2067.08970592	   -842.18750111	    151.58703032	   -117.64951445	   1088.45013189	     27.76467658	     16.83375014	     10.82867950	      5.57360117	    -45.00000000	    -44.36463978	     45.00000000	    -27.50284084	  -2072.63728989	    259.07170954	    138.22519474	    157.59724987	   2526.72034475	     26.23334934	      8.74737415	    -18.32931239
     12.10000000	     36.47633122	     10.65149530	     13.02496378	    -77.61889140	    763.12586983	      8.60709636	     11.50264056	     37.04919686	     45.00000000	     34.68602139	     -9.11546999	   2067.14272694	   -842.25662089	    151.61078514	   -117.86290768	   1088.32854464	     27.64952339	     16.77403611	     10.82078497	      5.47236895	    -45.00000000	    -44.47279068	     45.00000000	    -27.35417111	  -2072.76568589	    259.00943210	    138.14041713	    157.88321215	   2526.71470490	     26.33968863	      8.72048312	    -18.33993368
     12.11000000	     36.48219896	     10.54838989	     12.88112638	    -76.39080845	    763.27984874	      8.88616926	     11.36130446	     36.96018564	     45.00000000	     34.57533043	     -8.68174824	   2067.19128965	   -842.22412435	    151.66489317	   -118.06352075	   1088.22681622	     27.43349119	     16.73621650	     10.87948588	      5.46578558	    -45.00000000	    -44.84602290	     45.00000000	    -26.90197492	  -2072.82231318	    259.00758585	    138.13839192	    158.26795223	   2526.74080525	     26.38222181	      8.73185042	    -18.37013139
     12.12000000	     36.52760968	     10.39543994	     12.60886528	    -75.28842705	    763.48100290	      9.18934134	     11.19576553	     36.76297618	     45.00000000	     34.54854348	     -8.26744190	   2067.40655722	   -842.08583038	    151.82413363	   -118.11270670	   1088.29452084	     27.15816051	     16.77423199	     11.00519100	      5.51878755	    -45.00000000	    -45.00000000	     45.00000000	    -26.26144135	  -2073.06958520	    258.89908615	    138.27799062	    158.59507070	   2526.81010625	     26.36939907	      8.80012386	    -18.44345426
     12.13000000	     36.58980290	     10.19895064	     12.39884592	    -74.29346813	    763.72416449	      9.51300048	     11.03169404	     36.71721813	     45.00000000	     34.55118933	     -7.92176168	   2067.51535199	   -842.17861822	    151.83883126	   -118.19187811	   1088.22571811	     26.83991098	     16.76726357	     11.15213215	      5.51613112	    -45.00000000	    -45.00000000	     45.00000000	    -25.84165057	  -2073.14664212	    258.76667628	    138.13597960	    158.82318644	   2526.72469549	     26.30959083	      8.79103672	    -18.44002503
     12.14000000	     36.51657192	     10.12396734	     12.29541564	    -73.39260071	    764.00344435	      9.85341404	     10.99253649	     36.74448694	     45.00000000	     34.35734509	     -7.49210594	   2067.44304417	   -842.24678491	    151.83135633	   -118.31639251	   1088.11292820	     26.46071692	     16.71523902	     11.19590202	      5.48229034	    -45.00000000	    -45.00000000	     45.00000000	    -25.40074945	  -2073.23338992	    258.74699388	    138.13570031	    159.08173554	   2526.75715931	     26.17317792	      8.80423104	    -18.47266352
     12.15000000	     36.58270258	     10.02346280	     12.18133666	    -72.57203895	    764.31348321	     10.20554746	     10.84190042	     36.76732810	     45.00000000	     34.41861157	     -7.28883281	   2067.65442792	   -842.24636156	    151.88830145	   -118.30038197	   1088.07361640	     26.08810040	     16.72748060	     11.31966961	      5.40925199	    -45.00000000	    -45.00000000	     45.00000000	    -25.24415652	  -2073.41716881	    258.70600372	    138.08239070	    159.21418716	   2526.78192303	     26.00257922	      8.81161925	    -18.50287605
     12.16000000	     36.54921227	      9.99687264	     12.18064177	    -71.82221233	    764.64814980	     10.56526382	     10.92190799	     36.84083313	     45.00000000	     34.21354027	     -6.90416001	   2067.32280095	   -842.29862118	    151.70518221	   -118.46717506	   1088.04890443	     25.68543542	     16.67662076	     11.25979018	      5.41240176	    -45.00000000	    -45.00000000	     45.00000000	    -24.94933867	  -2073.38909442	    258.59131798	    138.06933037	    159.46828293	   2526.92995723	     25.76009982	      8.78414602	    -18.54287964
